<svg viewBox="0 0 64 64" xmlns="http://www.w3.org/2000/svg"><g fill-rule="evenodd"><path d="m0 0h64v64h-64z" fill="#783bf9"/><path d="m44.297 11.958c7.358 0 13.703 6.082 13.703 13.582 0 14.636-14.29 26.502-26 26.502s-26-11.866-26-26.502c0-7.5 6.345-13.582 13.704-13.582 8.926 0 12.077 6.937 12.296 7.445.219-.508 3.37-7.445 12.297-7.445zm2.353 14.142v-.413h-5.173v.413c0 5.137-4.252 9.315-9.478 9.315s-9.478-4.178-9.478-9.315v-.413h-5.171v.413c0 3.846 1.524 7.462 4.29 10.181 2.768 2.72 6.447 4.217 10.36 4.217s7.592-1.497 10.36-4.217c2.767-2.719 4.29-6.335 4.29-10.18z" fill="#f99df0"/></g></svg>